<svg xmlns="http://www.w3.org/2000/svg" viewBox="0 0 512 512" fill="none">
  <!--
    STREETSOLE Symbol Mark
    Concept: An abstract street grid forming a sole/footprint shape.
    A rounded rectangle (shoe sole silhouette) contains a minimal
    street grid pattern with one highlighted exploration path.
    Clean, geometric, iconic — reads at any size.
  -->

  <!-- Sole shape — rounded rectangle, slightly tapered -->
  <path d="M176 48 C112 48, 64 96, 64 160 L64 384 C64 432, 96 464, 160 464 L352 464 C416 464, 448 432, 448 384 L448 128 C448 80, 416 48, 352 48 Z"
        fill="#111827" />

  <!-- Street grid — horizontal lines -->
  <line x1="112" y1="160" x2="400" y2="160" stroke="#374151" stroke-width="8" stroke-linecap="round"/>
  <line x1="112" y1="240" x2="400" y2="240" stroke="#374151" stroke-width="8" stroke-linecap="round"/>
  <line x1="112" y1="320" x2="400" y2="320" stroke="#374151" stroke-width="8" stroke-linecap="round"/>
  <line x1="112" y1="400" x2="400" y2="400" stroke="#374151" stroke-width="8" stroke-linecap="round"/>

  <!-- Street grid — vertical lines -->
  <line x1="192" y1="96" x2="192" y2="432" stroke="#374151" stroke-width="8" stroke-linecap="round"/>
  <line x1="320" y1="96" x2="320" y2="432" stroke="#374151" stroke-width="8" stroke-linecap="round"/>
  <line x1="256" y1="96" x2="256" y2="432" stroke="#374151" stroke-width="8" stroke-linecap="round"/>

  <!-- Explored path — the hero route, bright green -->
  <polyline points="192,400 192,320 256,320 256,240 320,240 320,160 400,160"
            stroke="#10b981" stroke-width="14" stroke-linecap="round" stroke-linejoin="round"
            fill="none" />

  <!-- Current position dot — pulse point -->
  <circle cx="400" cy="160" r="16" fill="#10b981"/>
  <circle cx="400" cy="160" r="10" fill="#34d399"/>

  <!-- Starting point -->
  <circle cx="192" cy="400" r="10" fill="#6ee7b7" opacity="0.6"/>
</svg>
